<?xml version="1.0" encoding="UTF-8"?><svg id="Layer_2" xmlns="http://www.w3.org/2000/svg" viewBox="0 0 256 256"><defs><style>.cls-1{fill:#fff;}.cls-2{fill:#121212;}</style></defs><g id="Layer_1-2"><rect class="cls-2" width="256" height="256"/><polygon class="cls-1" points="140.85 113.22 128.02 120.6 140.85 128 153.65 135.4 166.45 142.81 179.28 150.21 192.08 157.58 192.08 187.17 179.28 179.79 166.45 172.39 153.65 164.99 140.85 157.58 128.02 150.21 128.02 164.99 115.22 172.39 102.39 179.79 89.55 187.17 76.76 194.6 63.92 201.97 63.92 172.39 76.76 164.99 89.55 157.58 102.39 150.21 115.22 142.81 128.02 135.4 115.22 128 102.39 120.6 89.55 113.22 76.76 105.79 63.92 98.42 63.92 68.83 76.76 76.21 89.55 83.61 102.39 91.01 115.22 98.42 128.02 105.79 128.02 91.01 140.85 83.61 153.65 76.21 166.45 68.83 179.28 61.43 179.28 61.4 192.08 54.03 192.08 83.61 179.28 91.01 166.45 98.42 153.65 105.79 140.85 113.19 140.85 113.22"/></g></svg>